<?xml version="1.0" encoding="utf-8"?>
<!-- Generator: Adobe Illustrator 23.1.1, SVG Export Plug-In . SVG Version: 6.00 Build 0)  -->
<svg version="1.1" id="Layer_1" xmlns="http://www.w3.org/2000/svg" xmlns:xlink="http://www.w3.org/1999/xlink" x="0px" y="0px"
	 viewBox="0 0 360 100.67" style="enable-background:new 0 0 360 100.67;" xml:space="preserve">
<style type="text/css">
	.st0{fill:#61BA9E;}
	.st1{fill:#2A473E;}
</style>
<path class="st0" d="M40,49.36c0.54-0.44,1.08-0.86,1.62-1.26c-1.09-0.27-2.14-0.48-3.13-0.62c-0.06,1.03-0.08,2.1-0.04,3.22
	C38.94,50.25,39.46,49.8,40,49.36z"/>
<path class="st0" d="M37.8,58.14c-0.14-0.67-0.26-1.34-0.37-2.03c-0.11-0.69-0.2-1.37-0.27-2.04c-0.78,0.82-1.48,1.63-2.1,2.42
	C35.89,57.05,36.81,57.61,37.8,58.14z"/>
<path class="st0" d="M34.15,57.73c-2.33,3.35-3.08,6.17-2.08,7.42c0.85,1.06,2.98,1.12,5.83,0.18c0.58-0.19,1.18-0.42,1.79-0.68
	c-0.55-1.4-1.04-2.93-1.45-4.55C36.75,59.36,35.37,58.56,34.15,57.73z"/>
<path class="st0" d="M36.98,52.07c-0.11-1.66-0.11-3.27-0.02-4.77c-4.03-0.36-6.83,0.4-7.4,1.9c-0.57,1.5,1.01,3.95,4.25,6.41
	C34.73,54.44,35.79,53.25,36.98,52.07z"/>
<path class="st0" d="M47.33,44.56c-1.36-2.95-2.93-4.86-4.31-5.4c-0.36-0.14-0.7-0.18-1.02-0.13c-1.33,0.21-2.46,2.04-3.07,5.01
	c-0.13,0.61-0.23,1.24-0.31,1.91c1.46,0.21,3.01,0.54,4.63,1C44.64,46.01,46.01,45.21,47.33,44.56z"/>
<path class="st0" d="M61.62,17.42c-0.33-0.93-0.66-1.69-1.01-2.56c-0.18-0.44-0.57-0.6-1.18-0.25c-0.75,0.42-1.48,0.77-2.39,1.26
	c-8.63,4.65-23.26,13.5-30.6,26.24c-6.4,11.38-11.17,31.7,8.63,35.56c20.52,9.72,29.11-4.72,31.01-23.58
	C67.31,41.79,65.31,27.69,61.62,17.42z M60.87,61.32c-0.88,2.31-4.33,3.28-8.97,2.87c-0.57,4.67-2.22,7.88-4.65,8.26
	c-0.6,0.1-1.2,0.02-1.81-0.21c-1.45-0.56-2.9-2.04-4.21-4.34c-0.33-0.57-0.64-1.19-0.94-1.84c-0.65,0.28-1.29,0.53-1.91,0.73
	c-2.5,0.82-4.56,0.95-6,0.39c-0.61-0.24-1.11-0.59-1.49-1.07c-1.55-1.93-0.65-5.42,2.02-9.28c-3.72-2.83-5.65-5.88-4.77-8.19
	c0.88-2.31,4.32-3.28,8.96-2.87c0.08-0.71,0.19-1.4,0.33-2.05c0.77-3.68,2.3-5.89,4.33-6.21c2.43-0.39,4.98,2.15,6.95,6.41
	c4.29-1.84,7.86-2,9.41-0.07c1.29,1.61,0.97,4.28-0.9,7.54c-0.33,0.58-0.7,1.16-1.11,1.75C59.83,55.97,61.75,59.01,60.87,61.32z"/>
<path class="st0" d="M47.07,48.23c0.65,0.25,1.28,0.51,1.89,0.78c-0.31-1.09-0.66-2.11-1.03-3.05c-0.89,0.45-1.83,0.97-2.78,1.57
	C45.79,47.75,46.43,47.98,47.07,48.23z"/>
<path class="st0" d="M41.94,61.73c-0.65-0.25-1.28-0.51-1.89-0.78c0.31,1.07,0.65,2.09,1.03,3.05c0.91-0.46,1.85-0.99,2.79-1.58
	C43.23,62.22,42.59,61.99,41.94,61.73z"/>
<path class="st0" d="M55.2,54.36c-0.92,1.18-1.99,2.37-3.17,3.53c0.11,1.68,0.11,3.28,0.01,4.77c4.04,0.36,6.84-0.39,7.41-1.9
	C60.02,59.27,58.44,56.82,55.2,54.36z"/>
<path class="st0" d="M55.91,50.62c1.51-2.63,1.88-4.74,1.03-5.8c-0.21-0.26-0.49-0.45-0.85-0.59c-1.38-0.53-3.81-0.17-6.78,1.1
	c0.55,1.38,1.04,2.9,1.45,4.54c1.5,0.75,2.88,1.55,4.1,2.38C55.25,51.7,55.6,51.15,55.91,50.62z"/>
<path class="st0" d="M51.22,51.82c0.13,0.66,0.26,1.34,0.37,2.03c0.11,0.69,0.2,1.37,0.27,2.04c0.76-0.8,1.47-1.61,2.1-2.42
	C53.12,52.92,52.21,52.36,51.22,51.82z"/>
<path class="st0" d="M41.68,65.42c0.28,0.61,0.57,1.18,0.87,1.71c1.5,2.63,3.13,4.02,4.46,3.8c1.57-0.25,2.89-2.86,3.38-6.92
	c-1.46-0.21-3.01-0.54-4.62-1C44.4,63.95,43.02,64.75,41.68,65.42z"/>
<path class="st0" d="M49.02,60.6c-0.53,0.44-1.07,0.86-1.62,1.26c1.09,0.27,2.14,0.48,3.13,0.62c0.06-1.01,0.08-2.08,0.05-3.22
	C50.07,59.72,49.55,60.17,49.02,60.6z"/>
<path class="st0" d="M50.45,57.24c-0.08-1.01-0.21-2.06-0.38-3.15l0,0c-0.17-1.08-0.38-2.14-0.61-3.16
	c-0.92-0.44-1.9-0.86-2.93-1.26c-0.6-0.23-1.19-0.44-1.77-0.64c-0.42-0.14-0.84-0.28-1.25-0.4c0,0,0,0,0,0c0,0,0,0,0,0
	c-0.06,0.04-0.12,0.09-0.18,0.13c-0.15,0.11-0.3,0.22-0.46,0.33c-0.02,0.02-0.04,0.03-0.06,0.05c-0.19,0.14-0.38,0.28-0.57,0.43
	c-0.12,0.09-0.24,0.19-0.36,0.28c-0.09,0.07-0.18,0.14-0.27,0.21c-0.21,0.17-0.43,0.34-0.64,0.51c-0.42,0.35-0.84,0.7-1.24,1.05
	c-0.05,0.04-0.09,0.08-0.14,0.12c-0.15,0.14-0.31,0.27-0.45,0.41c-0.01,0.01-0.01,0.01-0.02,0.02c-0.19,0.17-0.37,0.34-0.55,0.51
	c0,0,0,0,0,0c0,0,0,0,0,0c0,0.02,0,0.03,0,0.05c0.08,1.01,0.21,2.06,0.38,3.15l0,0c0.17,1.08,0.38,2.14,0.61,3.16
	c0.92,0.44,1.9,0.86,2.93,1.26c0.6,0.23,1.19,0.44,1.77,0.64c0.42,0.14,0.84,0.28,1.25,0.4c0,0,0,0,0,0s0,0,0,0
	c0.06-0.04,0.12-0.09,0.18-0.13c0.15-0.11,0.3-0.22,0.46-0.33c0.02-0.02,0.04-0.03,0.06-0.05c0.19-0.14,0.38-0.28,0.57-0.43
	c0.12-0.09,0.24-0.19,0.36-0.28c0.09-0.07,0.18-0.14,0.27-0.21c0.21-0.17,0.43-0.34,0.64-0.51c0.42-0.35,0.84-0.7,1.24-1.05
	c0.05-0.04,0.09-0.08,0.14-0.12c0.15-0.14,0.31-0.27,0.46-0.41c0.01-0.01,0.01-0.01,0.02-0.02c0.19-0.17,0.37-0.34,0.55-0.51
	c0,0,0,0,0,0s0,0,0,0C50.46,57.27,50.46,57.26,50.45,57.24z M47.42,56.11c-0.62,1.63-2.42,2.44-4.04,1.81
	c-1.61-0.62-2.42-2.45-1.8-4.07c0.62-1.63,2.42-2.44,4.04-1.81C47.24,52.66,48.04,54.49,47.42,56.11z"/>
<path class="st1" d="M89.56,57.31v12h-6.63V38.04h9.11c4.25,0,7.39,0.77,9.43,2.32c2.04,1.55,3.06,3.9,3.06,7.05
	c0,1.84-0.51,3.48-1.52,4.91c-1.01,1.43-2.45,2.56-4.3,3.37c4.71,7.03,7.77,11.57,9.2,13.62h-7.36l-7.46-12H89.56z M89.56,51.92
	h2.14c2.1,0,3.64-0.35,4.64-1.05c1-0.7,1.5-1.8,1.5-3.29c0-1.48-0.51-2.54-1.53-3.17c-1.02-0.63-2.6-0.94-4.74-0.94h-2.01V51.92z"/>
<path class="st1" d="M118.65,69.73c-3.85,0-6.86-1.06-9.02-3.19c-2.17-2.12-3.25-5.13-3.25-9.02c0-4.01,1-7.1,3-9.29
	c2-2.19,4.77-3.28,8.31-3.28c3.38,0,6.01,0.96,7.89,2.89c1.88,1.92,2.82,4.58,2.82,7.98v3.17h-15.42c0.07,1.85,0.62,3.3,1.65,4.34
	c1.03,1.04,2.47,1.56,4.32,1.56c1.44,0,2.8-0.15,4.08-0.45c1.28-0.3,2.62-0.78,4.02-1.43v5.05c-1.14,0.57-2.36,0.99-3.66,1.27
	S120.52,69.73,118.65,69.73z M117.73,49.59c-1.38,0-2.47,0.44-3.25,1.32s-1.23,2.12-1.35,3.73h9.15c-0.03-1.61-0.45-2.85-1.26-3.73
	C120.21,50.03,119.11,49.59,117.73,49.59z"/>
<path class="st1" d="M147.14,69.3l-1.26-3.25h-0.17c-1.1,1.38-2.23,2.34-3.39,2.88c-1.16,0.53-2.68,0.8-4.54,0.8
	c-2.3,0-4.1-0.66-5.42-1.97c-1.32-1.31-1.98-3.18-1.98-5.6c0-2.54,0.89-4.41,2.66-5.61c1.77-1.2,4.45-1.87,8.03-2l4.15-0.13v-1.05
	c0-2.42-1.24-3.64-3.72-3.64c-1.91,0-4.16,0.58-6.74,1.73l-2.16-4.41c2.75-1.44,5.8-2.16,9.15-2.16c3.21,0,5.67,0.7,7.38,2.1
	s2.57,3.52,2.57,6.37V69.3H147.14z M145.21,58.23l-2.52,0.09c-1.9,0.06-3.31,0.4-4.23,1.03c-0.93,0.63-1.39,1.58-1.39,2.87
	c0,1.84,1.05,2.76,3.17,2.76c1.51,0,2.72-0.43,3.62-1.3c0.9-0.87,1.36-2.02,1.36-3.46V58.23z"/>
<path class="st1" d="M165.49,69.73c-7.44,0-11.16-4.08-11.16-12.25c0-4.06,1.01-7.17,3.04-9.31c2.02-2.15,4.93-3.22,8.7-3.22
	c2.77,0,5.25,0.54,7.44,1.62l-1.92,5.05c-1.03-0.41-1.98-0.75-2.87-1.02c-0.88-0.26-1.77-0.4-2.65-0.4c-3.39,0-5.09,2.41-5.09,7.23
	c0,4.68,1.7,7.01,5.09,7.01c1.25,0,2.42-0.17,3.49-0.5c1.07-0.33,2.14-0.86,3.21-1.57v5.58c-1.06,0.67-2.12,1.13-3.2,1.39
	C168.49,69.6,167.13,69.73,165.49,69.73z"/>
<path class="st1" d="M187.5,64.54c1.14,0,2.51-0.25,4.11-0.75v4.85c-1.62,0.73-3.62,1.09-5.99,1.09c-2.61,0-4.51-0.66-5.7-1.98
	c-1.19-1.32-1.79-3.3-1.79-5.93V50.29h-3.12v-2.76l3.59-2.18l1.88-5.05h4.17v5.09h6.69v4.9h-6.69v11.53c0,0.93,0.26,1.61,0.78,2.05
	C185.95,64.31,186.64,64.54,187.5,64.54z"/>
<path class="st1" d="M209.2,69.3V38.04h6.63v25.79h12.68v5.47H209.2z"/>
<path class="st1" d="M241.62,69.73c-3.85,0-6.86-1.06-9.03-3.19c-2.17-2.12-3.25-5.13-3.25-9.02c0-4.01,1-7.1,3-9.29
	c2-2.19,4.77-3.28,8.31-3.28c3.38,0,6.01,0.96,7.89,2.89s2.82,4.58,2.82,7.98v3.17h-15.42c0.07,1.85,0.62,3.3,1.65,4.34
	c1.03,1.04,2.47,1.56,4.32,1.56c1.44,0,2.8-0.15,4.08-0.45s2.62-0.78,4.02-1.43v5.05c-1.14,0.57-2.36,0.99-3.66,1.27
	C245.08,69.59,243.49,69.73,241.62,69.73z M240.7,49.59c-1.38,0-2.47,0.44-3.25,1.32c-0.79,0.88-1.23,2.12-1.35,3.73h9.15
	c-0.03-1.61-0.45-2.85-1.26-3.73S242.09,49.59,240.7,49.59z"/>
<path class="st1" d="M270.11,69.3l-1.26-3.25h-0.17c-1.1,1.38-2.23,2.34-3.39,2.88c-1.16,0.53-2.68,0.8-4.54,0.8
	c-2.29,0-4.1-0.66-5.42-1.97c-1.32-1.31-1.98-3.18-1.98-5.6c0-2.54,0.89-4.41,2.66-5.61c1.77-1.2,4.45-1.87,8.03-2l4.15-0.13v-1.05
	c0-2.42-1.24-3.64-3.72-3.64c-1.91,0-4.16,0.58-6.74,1.73l-2.16-4.41c2.75-1.44,5.8-2.16,9.15-2.16c3.21,0,5.67,0.7,7.38,2.1
	s2.57,3.52,2.57,6.37V69.3H270.11z M268.19,58.23l-2.52,0.09c-1.9,0.06-3.31,0.4-4.23,1.03c-0.93,0.63-1.39,1.58-1.39,2.87
	c0,1.84,1.05,2.76,3.17,2.76c1.51,0,2.72-0.43,3.62-1.3c0.91-0.87,1.36-2.02,1.36-3.46V58.23z"/>
<path class="st1" d="M291.97,50.29h-5.65V69.3h-6.52V50.29h-3.59v-3.14l3.59-1.75v-1.75c0-2.72,0.67-4.71,2.01-5.97
	c1.34-1.25,3.49-1.88,6.44-1.88c2.25,0,4.26,0.33,6.01,1l-1.67,4.79c-1.31-0.41-2.52-0.62-3.64-0.62c-0.93,0-1.6,0.28-2.01,0.82
	c-0.41,0.55-0.62,1.25-0.62,2.11v1.5h5.65V50.29z M302.24,69.3h-6.52V36.03h6.52V69.3z"/>
<path class="st1" d="M317.25,69.73c-3.85,0-6.86-1.06-9.03-3.19c-2.17-2.12-3.25-5.13-3.25-9.02c0-4.01,1-7.1,3-9.29
	c2-2.19,4.77-3.28,8.31-3.28c3.38,0,6.01,0.96,7.89,2.89s2.82,4.58,2.82,7.98v3.17h-15.42c0.07,1.85,0.62,3.3,1.65,4.34
	c1.03,1.04,2.47,1.56,4.32,1.56c1.44,0,2.8-0.15,4.08-0.45s2.62-0.78,4.02-1.43v5.05c-1.14,0.57-2.36,0.99-3.66,1.27
	C320.7,69.59,319.12,69.73,317.25,69.73z M316.33,49.59c-1.38,0-2.47,0.44-3.25,1.32c-0.79,0.88-1.23,2.12-1.35,3.73h9.15
	c-0.03-1.61-0.45-2.85-1.26-3.73S317.72,49.59,316.33,49.59z"/>
<path class="st1" d="M340.63,64.54c1.14,0,2.51-0.25,4.11-0.75v4.85c-1.62,0.73-3.62,1.09-5.99,1.09c-2.61,0-4.51-0.66-5.7-1.98
	c-1.19-1.32-1.79-3.3-1.79-5.93V50.29h-3.12v-2.76l3.59-2.18l1.88-5.05h4.17v5.09h6.69v4.9h-6.69v11.53c0,0.93,0.26,1.61,0.78,2.05
	C339.09,64.31,339.77,64.54,340.63,64.54z"/>
</svg>
