<?xml version="1.0" encoding="utf-8"?>
<!-- Generator: Adobe Illustrator 21.1.0, SVG Export Plug-In . SVG Version: 6.00 Build 0)  -->
<svg version="1.1" id="Layer_2" xmlns="http://www.w3.org/2000/svg" xmlns:xlink="http://www.w3.org/1999/xlink" x="0px" y="0px"
	 viewBox="0 0 20.5 44.9" style="enable-background:new 0 0 20.5 44.9;" xml:space="preserve">
<style type="text/css">
	.st0{fill:#00A218;stroke:#FFFFFF;stroke-miterlimit:10;}
	.st1{fill:none;stroke:#FFFFFF;stroke-width:0.75;stroke-miterlimit:10;}
</style>
<path class="st0" d="M6.9,0.3c0,0-0.2,8.9-0.4,10c-0.2,1.1-5.7,6.7-6.1,7.9c-0.4,1.2,0,3.5,0,3.5S1.3,25,1.5,26s1,1.8,1,1.8
	l0.6,13.3c0,0-0.2,3.2,1.6,3.5c1.8,0.4,1.7-2,1.7-2s0.3-10.7,0.2-11.4c0-0.7,0.7-1,0.7-1s-0.1,1.8,0,2.5c0.1,0.6,0.4,2.5,2.4,2.5
	c2,0,2.2-2.3,2.2-2.3s0.4,0.9,2.1,0.9s2.1-3,2.1-3s0.1,0.4,1.4,0c1.8-0.5,1.5-1.9,1.5-1.9s-0.1-1.2-0.2-2.6s0.9-1.9,1-2.7
	s0.6-3.2,0.3-5.8c-0.3-2.6-1.5-5-1.6-6.7s0.8-9,0.8-9L6.9,0.3z"/>
<path class="st1" d="M11.9,32.8c0,0,0.3-3.4,0.3-4.6c0-1.1-0.8-3-0.8-3l-0.6-2c0,0-0.6-0.4-1.7-0.4s-1.9,1.7-1.9,1.7l0.3,1.2
	c0,0,0.9,2.1,0.9,2.9s-0.4,1.4-1,1.5s-1-1.1-1.4-1.6c-1-1-2.8-0.4-3.4-0.8"/>
<polyline class="st1" points="3.9,20.2 5.2,21.9 5.5,24.1 7.1,24.6 "/>
<path class="st1" d="M10.7,23.3c0,0,0.4-1.2,1.4-1.2s1.7,0.4,1.7,0.4c1,2.3,1.8,5.2,2.2,8.1"/>
<path class="st1" d="M18.9,26.1c-0.1-0.4-1.9-3.7-4.1-4c-0.9,0-0.9,0.4-0.9,0.4"/>
</svg>
