<?xml version="1.0" encoding="utf-8"?>
<!-- Generator: Adobe Illustrator 21.1.0, SVG Export Plug-In . SVG Version: 6.00 Build 0)  -->
<svg version="1.1" id="Layer_1" xmlns="http://www.w3.org/2000/svg" xmlns:xlink="http://www.w3.org/1999/xlink" x="0px" y="0px"
	 viewBox="0 0 30 30" style="enable-background:new 0 0 30 30;" xml:space="preserve">
<style type="text/css">
	.st0{fill:#FF00FF;}
	.st1{fill:#454545;}
	.st2{fill:none;stroke:#FFFFFF;stroke-miterlimit:10;}
	.st3{fill:none;stroke:#FFFFFF;stroke-width:0.5;stroke-miterlimit:10;}
</style>
<g>
	<path class="st0" d="M15.3,29.5C13.9,28,5.6,18.2,5.6,9.6c0-5,4.5-9.4,9.7-9.4S25,4.6,25,9.6C24.9,17.9,16.6,27.9,15.3,29.5z"/>
	<path class="st1" d="M15.3,0.4c5,0,9.4,4.3,9.4,9.2c0,8-7.6,17.4-9.4,19.6C13.5,27,5.9,17.7,5.9,9.5C5.9,4.7,10.3,0.4,15.3,0.4
		 M15.3-0.1c-5.5,0-9.9,4.7-9.9,9.7c0,9.5,9.9,20.3,9.9,20.3s9.9-11.1,9.9-20.3C25.2,4.5,20.8-0.1,15.3-0.1L15.3-0.1z"/>
</g>
<path class="st2" d="M20.1,13.7H11c-0.6,0-1-0.4-1-1V7.1c0-0.5,0.4-1,1-1h9.1c0.5,0,1,0.5,1,1v5.6C21.1,13.2,20.6,13.7,20.1,13.7z"
	/>
<path class="st3" d="M18.6,13.6h-6.2c-0.4,0-0.7-0.4-0.7-1V7c0-0.5,0.3-1,0.7-1h6.2c0.3,0,0.7,0.5,0.7,1v5.6
	C19.3,13.1,19,13.6,18.6,13.6z"/>
<path class="st2" d="M13.9,5.8L13.9,5.8c0-1.1,0.4-1.9,0.9-1.9h1.5c0.5,0,0.9,0.9,0.9,1.9l0,0"/>
</svg>
